<svg xmlns="http://www.w3.org/2000/svg" viewBox="0 0 800 600">
  <defs>
    <linearGradient id="bg" x1="0%" y1="0%" x2="0%" y2="100%">
      <stop offset="0%" stop-color="#1a0a00"/>
      <stop offset="100%" stop-color="#2d1810"/>
    </linearGradient>
  </defs>
  <rect width="800" height="600" fill="url(#bg)"/>
  <polygon points="400,80 390,400 410,400" fill="#8b4513" stroke="#ff6b35" stroke-width="1"/>
  <polygon points="300,120 290,380 310,380" fill="#8b4513" stroke="#ff6b35" stroke-width="1" transform="rotate(-15,300,250)"/>
  <polygon points="500,120 490,380 510,380" fill="#8b4513" stroke="#ff6b35" stroke-width="1" transform="rotate(15,500,250)"/>
  <polygon points="220,160 210,350 230,350" fill="#6b3410" stroke="#ff6b35" stroke-width="1" transform="rotate(-25,220,255)"/>
  <polygon points="580,160 570,350 590,350" fill="#6b3410" stroke="#ff6b35" stroke-width="1" transform="rotate(25,580,255)"/>
  <polygon points="350,100 340,370 360,370" fill="#7b3c12" stroke="#ff6b35" stroke-width="1" transform="rotate(-8,350,235)"/>
  <polygon points="450,100 440,370 460,370" fill="#7b3c12" stroke="#ff6b35" stroke-width="1" transform="rotate(8,450,235)"/>
  <ellipse cx="400" cy="430" rx="250" ry="40" fill="#ff6b35" opacity="0.2"/>
  <rect x="200" y="400" width="400" height="60" fill="#3d2010" rx="5"/>
  <text x="400" y="540" text-anchor="middle" font-family="serif" font-size="24" fill="#ff9500" opacity="0.7">Monument of Molten Blades</text>
</svg>
