<svg xmlns="http://www.w3.org/2000/svg" viewBox="0 0 800 600">
  <defs>
    <radialGradient id="arena" cx="50%" cy="50%" r="50%">
      <stop offset="0%" stop-color="#3d2010"/>
      <stop offset="100%" stop-color="#1a0a00"/>
    </radialGradient>
  </defs>
  <rect width="800" height="600" fill="#1a0a00"/>
  <ellipse cx="400" cy="350" rx="300" ry="150" fill="url(#arena)"/>
  <ellipse cx="400" cy="350" rx="300" ry="150" fill="none" stroke="#8b4513" stroke-width="4"/>
  <ellipse cx="400" cy="350" rx="250" ry="120" fill="none" stroke="#ff6b35" stroke-width="2" opacity="0.4"/>
  <path d="M100,200 Q150,150 200,180 Q250,100 300,160 Q350,80 400,130 Q450,80 500,160 Q550,100 600,180 Q650,150 700,200" fill="none" stroke="#ff6b35" stroke-width="3" opacity="0.3"/>
  <rect x="150" y="350" width="30" height="80" fill="#4a2c17" rx="3"/>
  <rect x="620" y="350" width="30" height="80" fill="#4a2c17" rx="3"/>
  <circle cx="250" cy="330" rx="8" fill="#ff6b35" opacity="0.5"/>
  <circle cx="550" cy="330" rx="8" fill="#ff6b35" opacity="0.5"/>
  <text x="400" y="540" text-anchor="middle" font-family="serif" font-size="28" fill="#ff9500" opacity="0.7">The Crucible</text>
</svg>
